<svg xmlns="http://www.w3.org/2000/svg" xml:space="preserve" viewBox="0 0 1024 1024" id="nail-polish">
  <path fill="none" stroke="#000" stroke-miterlimit="10" stroke-width="15" d="M351.91 900.55V547.81c0-8.2 6.65-14.86 14.86-14.86h290.46c8.2 0 14.86 6.65 14.86 14.86v352.75c0 20.68-16.77 37.45-37.45 37.45H389.36c-20.68-.01-37.45-16.78-37.45-37.46z"></path>
  <path fill="none" stroke="#000" stroke-miterlimit="10" stroke-width="15" d="m409.7 822.99-24.48-290.04h253.56L614.3 822.99c-1.95 23.11-21.28 40.87-44.47 40.87H454.17c-23.19.01-42.51-17.76-44.47-40.87zM577 532.95H447v-51.57h130zM414.28 480.48l20.29-373.37C435.21 95.27 445 86 456.85 86h110.3c11.85 0 21.64 9.27 22.28 21.1l20.29 373.37c.03.49-.36.9-.85.9H415.13c-.49.01-.88-.4-.85-.89z"></path>
  <path fill="none" stroke="#000" stroke-miterlimit="10" stroke-width="15" d="M496.69 481.38h30.62V673.7h-30.62zM495.27 673.7l-12.4 66.94c-.8 4.33 2.52 8.33 6.93 8.33h44.39c4.4 0 7.73-4 6.93-8.33l-12.4-66.94h-33.45z"></path>
</svg>
