<svg xmlns="http://www.w3.org/2000/svg" viewBox="0 0 64 64" id="diamond-ring">
  <path d="M38.14 14.82 42 9.5l.43-.59a.67.67 0 0 0 .12-.3.68.68 0 0 0-.19-.33l-.53-.52-3.45-3.46a.52.52 0 0 0-.13-.13A.7.7 0 0 0 38 4a.19.19 0 0 0-.1 0H26.46a.19.19 0 0 0-.1 0 .48.48 0 0 0-.22.14.42.42 0 0 0-.14.16l-3.49 3.45-.51.53a.76.76 0 0 0-.19.33.67.67 0 0 0 .12.3l.43.59 4 5.43A22.73 22.73 0 0 0 30.55 60c.66 0 1.32 0 2-.09s1.31.09 2 .09a22.73 22.73 0 0 0 3.65-45.18ZM32.52 58a20.78 20.78 0 0 1-4.37-40.51c.5-.16 1-.3 1.51-.41a1.19 1.19 0 0 1 .25-.06c.48-.12 1-.2 1.45-.28s.77-.11 1.16-.14a4.4 4.4 0 0 1 .52.06 14.52 14.52 0 0 1 1.47.22l.3.06c.52.11 1 .23 1.53.38A20.77 20.77 0 0 1 32.52 58Zm7.69-48.48-3.73 5.1c-.4 0-.8-.06-1.21-.07l1.68-5Zm-4.8 0-1.68 5c-.41 0-.82 0-1.22.07-.62-.06-1.25-.09-1.89-.09L29 9.52Zm-11.26 0h3.26l1.69 5.06c-.4 0-.79.06-1.18.11ZM9.67 37.26a20.79 20.79 0 0 1 12-18.82 22.64 22.64 0 0 0 0 37.65 20.8 20.8 0 0 1-12-18.83Zm33.66 18.83a22.64 22.64 0 0 0 0-37.65 20.73 20.73 0 0 1 0 37.65Z"></path>
</svg>
