<svg width="1605" height="1340" viewBox="0 0 1605 1340" fill="none" xmlns="http://www.w3.org/2000/svg">
<rect width="1605" height="1340" fill="transparent"/>
<path d="M1005.27 350.935C991.83 264.488 916.525 212 802 212C687.473 212 612.166 264.488 598.726 350.935C540.001 406.594 506.438 484.341 506.438 565.289V1107.09C506.438 1118.64 515.8 1128 527.351 1128C538.901 1128 548.264 1118.64 548.264 1107.09V565.289C548.264 511.605 565.469 459.554 596.548 416.619V633.663C596.548 682.466 613.666 727.342 642.196 762.627C642.648 763.256 643.141 763.861 643.668 764.446C681.383 810.025 738.359 839.113 802 839.113C865.185 839.113 921.789 810.434 959.508 765.419C960.6 764.35 961.545 763.181 962.354 761.943C990.554 726.765 1007.45 682.155 1007.45 633.665V416.619C1038.53 459.554 1055.73 511.605 1055.73 565.289V1050.82C1055.73 1062.37 1065.1 1071.73 1076.65 1071.73C1088.2 1071.73 1097.56 1062.37 1097.56 1050.82V565.289C1097.56 484.341 1063.99 406.594 1005.27 350.935ZM638.373 379.691C638.373 266.09 752.802 253.826 802 253.826C851.196 253.826 965.623 266.09 965.623 379.691V633.663C965.623 664.171 957.206 692.743 942.606 717.218C904.728 681.048 854.796 660.731 802 660.731C749.209 660.731 699.27 681.048 661.392 717.22C646.793 692.745 638.375 664.174 638.375 633.663V379.691H638.373ZM687.385 750.292C717.858 719.767 758.741 702.558 802 702.558C845.261 702.558 886.142 719.767 916.613 750.292C887.069 779.33 846.6 797.286 802 797.286C757.401 797.284 716.931 779.328 687.385 750.292Z" fill="black"/>
<path d="M1088.71 1089.82C1081.17 1084.79 1070.91 1085.29 1063.9 1091.05C1057.08 1096.66 1054.52 1106.23 1057.63 1114.49C1060.61 1122.41 1068.33 1127.86 1076.81 1128C1085.26 1128.13 1093.18 1122.93 1096.41 1115.12C1100.17 1106.03 1096.87 1095.3 1088.71 1089.82Z" fill="black"/>
</svg>
