<svg xmlns="http://www.w3.org/2000/svg" width="32" height="32" id="nail">
  <path fill="#373449" d="M15 1.031c-1.653 0-3 1.347-3 3V7.734c-1.833 1.558-3 4.02-3 6.797V30.47a.5.5 0 0 0 .5.5h14a.5.5 0 0 0 .5-.5V14.53c0-2.777-1.168-5.24-3-6.797v-1.67a.5.5 0 0 0 0-.033v-2c0-1.653-1.347-3-3-3h-3zm0 1h3c1.035 0 1.86.76 1.977 1.76A2.973 2.973 0 0 0 18 3.031h-3c-.76 0-1.447.292-1.977.76.118-1 .942-1.76 1.977-1.76zm0 2h3c1.117 0 2 .884 2 2v9.584a4.604 4.604 0 0 0-1.78-1.261 4.743 4.743 0 0 0-1.804-.32A4.703 4.703 0 0 0 13 15.591V6.064a.5.5 0 0 0 0-.033c0-1.116.883-2 2-2zm1.898.524-.406.271-.49.328-1.004-.398.293 1.039-.69.83 1.079.041.576.914.375-1.014 1.045-.265-.848-.668.07-1.078zm-.544.943V5.5l-.024.354.28.22-.344.088-.123.332-.19-.3-.353-.016.224-.272-.095-.343.33.132.295-.197zm1.312 2.98-.096.481-.115.578-.992.426.941.53.1 1.073.793-.732 1.053.238-.452-.982.551-.928-1.072.129-.711-.812zM21 9.126c1.223 1.356 2 3.265 2 5.406V29.97H10V14.53c0-2.14.778-4.048 2-5.404v7.904c0 1.654 1.347 3 3 3h3c1.653 0 3-1.346 3-3V9.125zm-3.053.408.235.266.353-.041-.181.305.148.324-.348-.08-.26.24-.033-.354-.308-.172.326-.14.068-.348zm-2.17 1.022-.406.271-.49.328-1.004-.398.293 1.039-.69.83 1.079.041.576.914.375-1.014 1.045-.265-.848-.668.07-1.078zm-.545.943v.002l-.023.354.28.22-.344.088-.124.332-.189-.3-.353-.016.224-.272-.096-.342.33.131.295-.197zm1.202 3.531c.473-.008.957.074 1.425.256a3.567 3.567 0 0 1 2.047 2.024.5.5 0 0 0 .055.109A1.98 1.98 0 0 1 18 19.031h-3a1.978 1.978 0 0 1-1.965-1.654.5.5 0 0 0 .088-.143c.558-1.346 1.89-2.18 3.31-2.205z" color="#000" font-family="sans-serif" font-weight="400" overflow="visible" style="line-height:normal;text-indent:0;text-align:start;text-decoration-line:none;text-decoration-style:solid;text-decoration-color:#000;text-transform:none;block-progression:tb;white-space:normal;isolation:auto;mix-blend-mode:normal;solid-color:#000;solid-opacity:1"></path>
</svg>
