<svg xmlns="http://www.w3.org/2000/svg" width="48" height="48" id="nail-polish">
  <path d="M24.385 43.712a5.843 5.843 0 0 1-4.174-1.713l-1.414-1.414 7.071-7.07-4.243-4.243 9.871-9.871c.795-.794 2.076-.808 2.856-.029l7.071 7.072c.382.382.587.895.576 1.443a2.05 2.05 0 0 1-.604 1.413L28.852 41.844a6.294 6.294 0 0 1-4.331 1.866l-.136.002zm-2.76-3.127c.75.75 1.753 1.136 2.853 1.126a4.308 4.308 0 0 0 2.959-1.281l12.544-12.544-7.042-7.1-8.486 8.485 2.829 2.829c.377.376.585.879.585 1.414 0 .534-.208 1.036-.584 1.414l-5.658 5.657z"></path>
  <path d="M13.14 46.997a4.981 4.981 0 0 1-3.535-1.462l-.707-.707c-.377-.377-.585-.879-.585-1.414s.208-1.038.585-1.415l14.141-14.142 4.243 4.243c.377.376.585.879.585 1.414 0 .534-.208 1.036-.584 1.414L16.675 45.535a4.981 4.981 0 0 1-3.535 1.462zm-2.828-3.583.707.707a3.004 3.004 0 0 0 4.243 0l10.606-10.606-2.829-2.829-12.727 12.728zM12 15h-2c-1.103 0-2-.897-2-2V3c0-1.103.897-2 2-2h2c1.103 0 2 .897 2 2v10c0 1.103-.897 2-2 2zM10 3v10h2.001L12 3h-2z"></path>
  <path d="M11 22a1 1 0 0 1-1-1v-7a1 1 0 1 1 2 0v7a1 1 0 0 1-1 1z"></path>
  <path d="M13.879 33H8.121c-.73 0-1.399-.347-1.79-.928a1.887 1.887 0 0 1-.188-1.791L11 18.348l4.858 11.934a1.887 1.887 0 0 1-.188 1.791c-.391.58-1.06.927-1.791.927zm-5.85-2.008c.021 0 .052.008.092.008h5.759c.082 0 .123-.032.131-.044l-3.006-7.314-2.994 7.354a.034.034 0 0 1 .018-.004z"></path>
  <path fill="none" d="M0 0h48v48H0z"></path>
</svg>
